<mxfile host="app.diagrams.net" modified="2024-02-09T10:51:24.112Z" agent="Mozilla/5.0 (Windows NT 10.0; Win64; x64; rv:122.0) Gecko/20100101 Firefox/122.0" etag="jBWT99ovEudS4uE6VJxF" version="21.8.1" type="github">
  <diagram name="Page-1" id="chT94DsUAOmHUc2Onf3k">
    <mxGraphModel dx="922" dy="577" grid="1" gridSize="10" guides="1" tooltips="1" connect="1" arrows="1" fold="1" page="1" pageScale="1" pageWidth="1600" pageHeight="900" math="0" shadow="0">
      <root>
        <mxCell id="0" />
        <mxCell id="1" parent="0" />
        <mxCell id="pkFO_bWxdBJQIbptbmhE-4" value="&lt;div&gt;NASA Mission Control Project&lt;/div&gt;" style="rounded=0;whiteSpace=wrap;html=1;fillStyle=auto;dashed=1;align=left;verticalAlign=top;" vertex="1" parent="1">
          <mxGeometry x="200" y="80" width="440" height="250" as="geometry" />
        </mxCell>
        <mxCell id="pkFO_bWxdBJQIbptbmhE-3" value="&lt;div&gt;HTTP&lt;/div&gt;" style="edgeStyle=orthogonalEdgeStyle;rounded=0;orthogonalLoop=1;jettySize=auto;html=1;entryX=0;entryY=0.5;entryDx=0;entryDy=0;verticalAlign=bottom;" edge="1" parent="1" source="pkFO_bWxdBJQIbptbmhE-1" target="pkFO_bWxdBJQIbptbmhE-2">
          <mxGeometry relative="1" as="geometry" />
        </mxCell>
        <mxCell id="pkFO_bWxdBJQIbptbmhE-1" value="&lt;div&gt;Web App&lt;/div&gt;" style="whiteSpace=wrap;html=1;aspect=fixed;fillColor=#004C99;fontColor=#FFFFFF;" vertex="1" parent="1">
          <mxGeometry x="280" y="150" width="80" height="80" as="geometry" />
        </mxCell>
        <mxCell id="pkFO_bWxdBJQIbptbmhE-2" value="Node API" style="whiteSpace=wrap;html=1;aspect=fixed;fillColor=#004C99;fontColor=#FFFFFF;" vertex="1" parent="1">
          <mxGeometry x="480" y="150" width="80" height="80" as="geometry" />
        </mxCell>
      </root>
    </mxGraphModel>
  </diagram>
</mxfile>
